<svg width="16" height="16" viewBox="0 0 16 16" fill="none" xmlns="http://www.w3.org/2000/svg">
<path d="M2.68808 2.00049L2.00049 2.68808L13.3156 14.0031L14.0031 13.3156L2.68808 2.00049Z" fill="#27272A"/>
<path d="M8.10693 6.00424L10.0016 7.89886C9.97523 7.40491 9.76717 6.93815 9.4174 6.58839C9.06764 6.23862 8.60088 6.03056 8.10693 6.00424Z" fill="#27272A"/>
<path d="M7.89804 10.0007L6.00342 8.10605C6.02974 8.59999 6.2378 9.06675 6.58756 9.41652C6.93733 9.76628 7.40409 9.97434 7.89804 10.0007Z" fill="#27272A"/>
<path d="M8.00213 11.0023C7.5405 11.0023 7.08509 10.8958 6.67134 10.6911C6.25759 10.4864 5.89664 10.189 5.61659 9.82205C5.33654 9.45508 5.14493 9.02844 5.05667 8.57533C4.96842 8.12222 4.98589 7.65486 5.10774 7.2096L2.94884 5.05038C2.06708 5.85806 1.2269 6.91204 0.500488 8.00165C1.32629 9.37695 2.45591 10.791 3.63242 11.6018C4.98209 12.5314 6.4496 13.0027 7.99462 13.0027C8.83896 13.0033 9.67699 12.8574 10.4714 12.5714L8.79574 10.896C8.53715 10.9668 8.27023 11.0026 8.00213 11.0023Z" fill="#27272A"/>
<path d="M8.00141 5.00083C8.46304 5.00081 8.91844 5.10729 9.3322 5.312C9.74595 5.51671 10.1069 5.81412 10.3869 6.18109C10.667 6.54806 10.8586 6.9747 10.9469 7.42781C11.0351 7.88092 11.0176 8.34828 10.8958 8.79353L13.1044 11.0021C14.0155 10.1816 14.857 9.07797 15.503 8.00148C14.6785 6.644 13.537 5.23338 12.3405 4.41258C10.9739 3.4755 9.51143 3.0004 7.99391 3.0004C7.15886 3.00159 6.33083 3.15289 5.54932 3.44705L7.20937 5.1071C7.46745 5.03646 7.73384 5.00072 8.00141 5.00083Z" fill="#27272A"/>
</svg>
